solid hull
facet normal 0 -1 0
outer loop
vertex 1 1 2
vertex 3 1 1
vertex 8 1 0
endloop
endfacet
facet normal -0.186411 -0.310685 -0.932055
outer loop
vertex 8 1 0
vertex 3 1 1
vertex 3 4 0
endloop
endfacet
facet normal 0.329293 0.548821 -0.76835
outer loop
vertex 0 10 3
vertex 8 1 0
vertex 3 4 0
endloop
endfacet
facet normal 0.212 -0.635999 0.741999
outer loop
vertex 1 1 2
vertex 8 1 0
vertex 0 3 4
endloop
endfacet
facet normal 0.468521 0.124939 0.874573
outer loop
vertex 8 1 0
vertex 0 10 3
vertex 0 3 4
endloop
endfacet
facet normal -0.408248 -0.408248 -0.816497
outer loop
vertex 3 1 1
vertex 1 1 2
vertex 1 3 1
endloop
endfacet
facet normal -0.301511 -0.301511 -0.904534
outer loop
vertex 3 4 0
vertex 3 1 1
vertex 1 3 1
endloop
endfacet
facet normal -0.507093 0.169031 -0.845154
outer loop
vertex 0 10 3
vertex 3 4 0
vertex 1 3 1
endloop
endfacet
facet normal -0.947717 -0.0451294 -0.315906
outer loop
vertex 0 3 4
vertex 0 10 3
vertex 1 3 1
endloop
endfacet
facet normal -0.937043 -0.156174 -0.312348
outer loop
vertex 1 1 2
vertex 0 3 4
vertex 1 3 1
endloop
endfacet
endsolid hull
